<?xml version="1.0" standalone="no"?>
<!DOCTYPE svg PUBLIC "-//W3C//DTD SVG 20010904//EN"
 "http://www.w3.org/TR/2001/REC-SVG-20010904/DTD/svg10.dtd">
<svg version="1.0" xmlns="http://www.w3.org/2000/svg"
 width="747.000000pt" height="502.000000pt" viewBox="0 0 747.000000 502.000000"
 preserveAspectRatio="xMidYMid meet">

<g transform="translate(0.000000,502.000000) scale(0.100000,-0.100000)"
fill="#000000" stroke="none">
<path d="M998 4243 l-88 -4 0 -967 0 -967 75 -3 c66 -2 76 0 85 18 6 11 19 20
29 20 30 0 104 107 111 160 3 31 10 46 21 48 15 3 17 -10 15 -110 -2 -70 -8
-124 -16 -141 -10 -20 -11 -38 -4 -65 9 -37 10 -37 57 -35 27 2 56 -1 66 -7
17 -9 83 4 106 21 13 9 10 111 -6 202 -6 37 -8 75 -5 84 11 28 -13 43 -70 43
-42 0 -55 4 -64 19 -5 11 -26 25 -45 31 -19 6 -35 16 -35 21 0 6 -20 29 -45
51 -33 30 -45 49 -45 70 0 28 13 37 25 18 10 -16 23 -12 30 10 9 29 23 25 62
-17 l35 -38 -5 83 c-4 61 -1 93 10 119 19 47 11 67 -25 58 -15 -4 -38 -8 -52
-9 -30 -2 -37 -26 -16 -59 19 -29 13 -37 -30 -37 -18 0 -36 -4 -39 -10 -3 -5
-11 -10 -16 -10 -20 0 -98 83 -108 113 -25 83 -32 356 -10 411 43 110 224 208
352 191 102 -14 210 -91 262 -186 26 -47 30 -68 35 -159 5 -89 10 -113 33
-157 34 -65 35 -113 4 -149 -19 -22 -28 -25 -55 -19 -33 7 -43 30 -21 52 8 8
5 14 -11 23 -22 12 -22 11 -15 -57 4 -46 14 -78 28 -98 31 -42 29 -113 -5
-187 -25 -53 -30 -58 -72 -69 -51 -13 -53 -18 -31 -79 8 -23 15 -58 15 -77 l0
-34 54 6 c53 7 54 6 89 -31 29 -31 42 -38 78 -40 40 -2 61 -16 72 -47 2 -7 24
-6 68 2 35 7 91 14 124 16 33 2 68 7 79 11 13 5 21 2 28 -10 7 -13 13 -14 23
-6 10 8 19 8 36 0 18 -10 24 -9 31 4 11 20 22 20 42 0 14 -14 18 -13 40 3 13
10 27 33 31 50 3 18 15 37 25 43 12 6 20 21 20 35 0 18 5 25 20 25 15 0 20 7
20 25 0 14 8 29 20 35 15 8 19 17 14 36 -5 19 -3 23 10 18 33 -13 14 15 -41
62 -77 65 -91 83 -99 122 -8 40 0 50 21 28 19 -19 37 -20 53 -4 9 9 18 9 37 0
14 -7 29 -12 34 -12 4 0 9 45 10 100 2 98 2 100 -22 109 -36 14 -43 31 -14 31
24 0 97 68 97 90 0 13 0 13 -50 -5 -23 -8 -62 -15 -86 -15 -32 0 -44 -4 -44
-15 0 -8 -4 -15 -10 -15 -15 0 -12 -17 7 -35 15 -16 15 -18 1 -26 -20 -11 -12
-48 13 -57 16 -7 16 -8 0 -27 -9 -11 -31 -28 -48 -38 l-32 -17 -26 44 c-44 74
-49 109 -26 161 20 45 20 46 1 122 -24 92 -25 142 -4 213 35 117 115 196 253
247 l55 20 -35 12 c-19 6 -50 25 -68 42 -24 21 -40 29 -55 25 -63 -18 -97 -18
-121 -2 -14 9 -23 21 -20 26 4 6 -15 10 -45 10 l-51 0 3 32 c2 25 9 34 28 39
23 6 23 7 3 8 -17 1 -23 9 -28 39 -11 64 -13 59 -14 -30 l-1 -88 -35 0 c-22 0
-35 5 -35 13 0 7 -7 22 -15 33 -14 18 -14 17 -8 -14 l6 -34 -44 3 c-24 1 -54
-1 -66 -5 -12 -4 -31 -2 -43 4 -25 13 -27 57 -2 63 10 3 6 5 -10 6 -22 1 -28
6 -29 24 -1 13 -8 -1 -19 -33 -9 -30 -23 -56 -29 -58 -8 -3 -7 -8 4 -16 9 -6
19 -31 22 -54 l6 -42 -58 -25 c-36 -16 -71 -25 -93 -23 -35 3 -36 5 -57 75
-20 65 -21 72 -6 76 9 3 1 5 -16 6 -27 1 -33 5 -33 23 0 12 8 30 18 41 16 19
16 20 0 14 -16 -6 -18 1 -18 62 0 46 4 71 13 74 10 4 10 6 0 6 -9 1 -14 21
-15 59 -1 31 -5 -17 -8 -108 -4 -138 -7 -165 -20 -165 -8 0 -14 6 -12 13 1 6
-3 12 -9 12 -5 0 -7 5 -3 12 4 7 3 8 -4 4 -7 -4 -12 -14 -12 -22 0 -8 -4 -14
-10 -14 -6 0 -11 52 -11 133 l-2 132 -7 -101 c-10 -140 -38 -174 -141 -174
-37 0 -39 2 -39 30 0 28 3 30 34 30 46 0 66 29 66 93 0 49 0 49 -27 42 -56
-16 -68 -12 -71 21 -2 24 2 33 20 41 l23 10 -22 7 c-17 5 -23 15 -23 37 0 27
3 29 38 29 20 0 52 -4 70 -9 17 -5 32 -6 32 -1 0 5 26 22 57 40 55 29 63 31
153 28 l94 -3 23 -95 c22 -89 23 -111 6 -157 -3 -10 -3 -15 1 -12 7 6 66 175
66 187 0 4 -4 0 -10 -8 -8 -13 -9 -13 -14 0 -2 8 -9 30 -15 48 -13 42 -8 44
100 40 l84 -3 14 -55 c7 -30 18 -72 23 -92 11 -48 37 -51 39 -5 4 98 2 92 39
92 l35 0 3 -52 c3 -49 4 -52 26 -44 12 5 34 7 49 4 26 -5 27 -8 29 -77 l2 -71
3 67 c5 85 -6 106 -58 114 -36 6 -40 9 -37 33 3 24 6 26 54 26 98 -1 129 -51
122 -198 -3 -74 -5 -81 -36 -108 -18 -16 -29 -29 -25 -29 4 0 20 12 35 27 l28
27 0 -27 c0 -14 3 -28 8 -30 4 -3 6 44 4 103 -2 66 1 117 8 130 6 11 7 20 2
20 -12 0 -12 79 0 87 6 3 7 -3 3 -16 -3 -11 -2 -21 3 -21 5 0 12 9 15 20 3 12
14 20 26 20 19 0 21 -6 22 -57 0 -32 3 -51 6 -43 3 8 11 18 17 22 8 5 7 8 -1
8 -8 0 -13 14 -13 35 l0 34 68 4 67 3 -74 2 -74 2 29 23 c25 19 43 22 136 25
107 4 108 4 133 -24 22 -23 28 -26 35 -14 6 8 10 21 10 28 0 8 23 12 80 12 78
0 80 -1 70 -21 -6 -11 -21 -24 -33 -29 -12 -5 -16 -9 -9 -9 9 -1 12 -39 12
-157 0 -110 -3 -153 -11 -148 -25 15 13 -36 48 -65 49 -41 96 -41 149 -3 21
16 46 37 54 48 14 17 14 18 -2 6 -10 -8 -44 -16 -78 -19 l-60 -6 0 32 c0 29 3
31 33 31 20 0 41 8 50 18 21 23 22 80 1 121 -9 18 -14 41 -11 52 3 12 0 19 -9
20 -8 1 -18 3 -24 4 -5 1 -17 3 -25 4 -10 1 -15 12 -15 31 0 28 2 30 40 30 51
0 105 -22 120 -49 6 -12 14 -51 17 -87 3 -37 16 -87 28 -112 l22 -46 8 78 c6
64 12 83 31 102 47 48 50 39 57 -163 7 -223 2 -257 -35 -261 -18 -2 -30 3 -37
15 -27 48 -28 48 -55 16 -15 -18 -47 -41 -71 -53 -84 -41 -148 -11 -245 115
-45 59 -51 59 -108 11 l-22 -20 74 -28 c96 -37 156 -90 198 -176 31 -63 33
-72 33 -182 l1 -116 39 -64 38 -63 -28 -55 c-16 -30 -38 -63 -49 -74 -16 -14
-22 -37 -27 -96 l-6 -76 -65 -61 c-62 -58 -65 -62 -53 -85 7 -13 11 -30 8 -37
-3 -7 7 -18 21 -24 17 -8 26 -20 26 -36 0 -15 6 -23 18 -23 9 0 29 -20 44 -45
15 -25 33 -44 40 -43 6 2 14 -6 16 -16 2 -11 15 -28 28 -39 13 -10 24 -25 24
-34 0 -12 8 -14 37 -10 20 4 40 12 44 19 7 10 13 10 27 1 15 -9 22 -9 31 0 9
9 16 9 30 0 13 -8 22 -8 29 -1 6 6 57 12 114 13 124 3 118 2 118 18 0 6 14 20
30 29 17 9 35 29 40 43 9 25 57 52 69 39 3 -3 6 -42 6 -87 l0 -81 70 -13 c39
-7 94 -12 124 -11 l55 3 33 64 c30 55 33 67 24 94 -8 21 -8 34 0 43 8 9 8 27
1 60 -20 93 14 100 39 9 8 -32 21 -61 27 -63 7 -2 22 -22 33 -44 l20 -40 117
5 c64 2 126 7 138 11 21 7 21 5 21 -124 0 -87 -4 -129 -11 -127 -5 2 -11 20
-12 40 -3 46 -21 80 -37 70 -7 -4 -28 -9 -47 -10 -40 -1 -63 -6 -140 -27 -30
-9 -64 -16 -75 -16 -48 -1 -50 -16 -11 -65 28 -33 41 -43 50 -36 7 6 65 12
130 13 107 3 119 1 132 -16 8 -11 14 -30 14 -43 0 -12 9 -27 20 -33 11 -6 20
-16 20 -22 0 -7 -5 -6 -15 2 -13 11 -15 7 -16 -26 0 -22 -2 -145 -3 -274 -2
-129 -4 -236 -5 -237 0 -1 -47 14 -103 33 -114 38 -119 39 -113 21 3 -7 27
-18 54 -24 27 -6 76 -24 108 -40 45 -22 57 -33 55 -48 -4 -25 -3 -65 2 -131 2
-28 1 -56 -3 -63 -6 -8 -42 -2 -131 25 -69 19 -139 42 -157 49 -18 8 -53 17
-78 20 -25 4 -48 11 -51 16 -3 5 -10 7 -15 3 -6 -3 -30 -3 -55 1 -38 5 -44 9
-44 31 0 18 5 24 23 24 12 0 33 4 47 7 22 7 21 8 -15 13 -32 4 -41 10 -43 27
-2 13 1 23 6 23 5 0 7 10 5 22 -7 44 7 49 87 28 106 -28 122 -23 21 5 -46 13
-91 31 -100 39 -14 14 -17 12 -31 -27 -12 -33 -21 -42 -40 -43 -14 0 -26 -4
-27 -10 -1 -5 9 -8 23 -6 21 3 25 0 22 -15 -3 -15 -12 -17 -47 -15 -39 2 -41
1 -28 -13 9 -8 27 -15 41 -15 29 0 39 -11 30 -35 -5 -12 -15 -16 -36 -13 -16
3 -32 0 -36 -6 -4 -6 -9 5 -12 24 -3 24 -10 35 -22 35 -10 0 -23 6 -30 14 -11
11 -9 13 10 8 12 -3 22 -1 22 4 0 5 -11 9 -25 9 -18 0 -25 -5 -25 -19 0 -23
-25 -47 -35 -31 -3 6 -10 8 -15 5 -4 -3 -13 2 -19 9 -9 11 -9 14 1 12 7 -1 19
-5 26 -10 7 -4 16 -5 20 -1 3 3 0 10 -8 15 -12 8 -11 10 5 11 14 1 11 4 -10
10 -22 6 -13 7 37 6 66 -2 67 -1 92 33 14 19 34 51 45 71 11 19 27 41 35 48 9
8 37 43 63 80 82 116 123 161 148 161 12 0 28 7 35 15 9 11 28 13 78 10 47 -3
59 -2 42 4 -14 5 -39 9 -56 10 -39 1 -47 18 -26 60 17 37 7 68 -22 63 -11 -2
-22 11 -35 41 -25 59 -76 101 -110 91 -14 -4 -69 -7 -121 -6 -52 1 -89 -1 -82
-4 16 -7 16 -24 -1 -24 -7 0 -22 -7 -33 -16 -18 -15 -18 -15 0 -10 34 11 8
-46 -45 -96 -27 -26 -49 -54 -49 -62 0 -7 -6 -19 -14 -25 -12 -10 -15 -7 -19
16 -3 24 -4 23 -6 -8 0 -20 -4 -38 -7 -42 -3 -3 -7 -34 -8 -69 -2 -35 -3 -81
-4 -103 l-2 -40 -384 0 c-211 0 -387 3 -391 7 -4 4 0 29 9 56 11 31 15 72 13
115 l-3 67 35 1 c141 6 188 10 281 25 96 15 265 27 413 28 l59 1 -5 35 c-6 39
-10 56 -22 84 -9 20 8 36 38 36 10 0 17 8 17 18 0 10 6 24 13 31 10 12 8 12
-8 6 -11 -5 -44 -9 -73 -9 -29 -1 -56 -6 -60 -12 -4 -5 -23 -16 -42 -24 -19
-8 -41 -20 -49 -28 -15 -14 -63 -8 -69 9 -7 17 -22 9 -22 -11 0 -22 -29 -27
-47 -9 -9 9 -19 9 -42 -1 -17 -7 -39 -10 -50 -7 -10 2 -25 1 -33 -4 -8 -4 -48
-5 -89 0 -41 4 -75 4 -77 0 -2 -5 -12 -9 -23 -9 -10 0 -19 -6 -19 -12 -1 -8
-6 -6 -14 5 -12 15 -15 15 -26 2 -14 -17 -40 -20 -40 -4 0 5 -5 7 -11 3 -15
-9 -29 14 -29 49 0 31 28 47 77 44 22 -2 29 3 31 19 2 16 8 20 23 17 10 -3 19
-1 19 5 0 6 -10 12 -22 14 -19 3 -25 16 -44 93 -13 50 -21 100 -17 113 3 13 1
22 -6 22 -7 0 -17 14 -22 30 -12 33 -39 40 -59 15 -14 -17 -60 -20 -60 -4 0 6
9 13 20 16 11 3 20 11 20 18 0 6 10 17 23 24 20 10 19 11 -11 6 -25 -3 -32 -1
-28 8 3 6 9 20 12 30 4 9 15 17 25 17 10 0 21 5 25 11 4 7 0 9 -12 5 -11 -3
-82 -6 -160 -8 -131 -3 -140 -4 -130 -20 6 -10 16 -18 22 -18 7 0 14 -9 17
-20 6 -23 3 -24 -24 -10 -15 9 -19 7 -19 -5 0 -8 -9 -23 -20 -32 -13 -11 -20
-30 -20 -51 0 -21 -8 -41 -24 -56 -20 -21 -22 -29 -16 -73 4 -26 4 -56 -1 -65
-6 -10 -6 -18 -1 -18 4 0 12 -19 18 -42 8 -40 11 -43 46 -46 52 -4 64 -23 48
-72 -11 -34 -18 -40 -41 -40 -15 0 -30 6 -32 13 -4 9 -6 9 -6 0 -1 -9 -17 -13
-47 -13 -25 0 -43 4 -40 9 12 19 -6 37 -37 38 -72 2 -120 11 -128 24 -7 12
-12 12 -30 0 -19 -11 -24 -11 -33 1 -7 9 -27 13 -58 12 -43 -1 -46 0 -38 16
13 25 -18 37 -35 14 -15 -22 -35 -10 -28 16 3 12 0 20 -7 20 -7 0 -10 -7 -6
-15 6 -18 -20 -20 -60 -5 -34 13 -37 10 -28 -35 5 -26 10 -33 17 -26 20 20 30
12 15 -12 -8 -12 -20 -36 -26 -54 l-10 -31 71 -13 c40 -7 77 -15 82 -19 26
-19 77 -22 95 -5 14 12 20 13 26 4 4 -7 3 -10 -3 -6 -6 4 -13 1 -16 -7 -4 -10
7 -15 39 -20 24 -3 55 -8 69 -12 24 -6 25 -4 25 36 l0 43 77 -7 c42 -3 97 -6
123 -6 l47 0 -7 -44 c-4 -25 -3 -50 1 -58 4 -7 5 -25 2 -41 -5 -24 -10 -27
-42 -27 -72 0 -278 29 -383 54 -58 14 -131 29 -162 32 l-56 7 0 38 c0 37 -4
41 -54 54 -42 11 -56 21 -76 56 -27 50 -64 70 -86 47 -13 -13 -13 -17 -1 -29
12 -13 12 -16 0 -28 -14 -13 -13 -41 3 -106 l5 -20 -16 20 c-9 11 -21 19 -26
17 -11 -3 -11 5 0 26 5 10 6 36 1 60 -7 40 -5 44 27 72 18 17 43 30 54 30 11
0 17 5 14 10 -12 19 -77 10 -128 -17 -45 -25 -48 -28 -26 -31 13 -2 28 -8 34
-13 5 -6 -9 -7 -38 -3 -43 6 -49 5 -54 -14 -4 -17 -12 -21 -34 -18 -26 3 -29
0 -29 -26 0 -16 3 -27 8 -24 4 2 16 -2 27 -10 10 -8 14 -14 8 -14 -7 0 -15 5
-19 12 -5 7 -10 3 -16 -12 -5 -13 -5 -26 0 -29 11 -7 27 -45 31 -70 0 -5 18
-18 38 -28 21 -11 38 -26 38 -34 2 -49 34 -105 97 -171 42 -43 71 -81 75 -99
4 -23 13 -31 34 -36 33 -6 32 -4 19 -38 -9 -23 -13 -25 -25 -15 -8 7 -12 17
-9 22 4 6 -5 8 -24 3 -17 -3 -50 -1 -73 5 -113 31 -138 30 -203 -5 -34 -18
-94 -43 -133 -56 -40 -13 -73 -27 -73 -31 0 -5 8 -20 17 -35 17 -25 16 -26
-12 -49 -32 -25 -51 -31 -39 -13 4 7 -1 7 -16 -1 -17 -9 -24 -9 -30 0 -5 9
-19 6 -51 -11 -24 -13 -53 -27 -64 -31 -31 -13 19 25 93 68 34 20 62 38 62 40
0 4 -106 -39 -191 -78 -37 -17 -72 -28 -78 -24 -7 4 -11 -1 -11 -13 0 -17 5
-19 35 -14 31 5 35 3 35 -16 0 -11 -6 -21 -14 -21 -8 0 -16 -7 -20 -15 -3 -8
-12 -15 -21 -15 -18 0 -18 1 -4 -39 8 -24 8 -35 -1 -46 -10 -12 -10 -15 3 -15
8 0 17 -5 19 -10 2 -6 19 1 38 15 18 14 40 25 47 25 15 0 18 26 3 35 -5 3 -18
0 -28 -6 -22 -14 -72 -4 -72 14 0 13 53 37 81 37 20 0 136 56 167 81 34 26 91
51 103 43 5 -3 9 -1 9 4 0 5 47 30 104 56 l103 47 34 -20 c19 -12 64 -30 102
-42 63 -19 67 -22 67 -49 0 -17 5 -30 10 -30 6 0 10 -5 10 -11 0 -6 -6 -9 -14
-6 -11 4 -14 -3 -13 -29 1 -23 6 -33 15 -29 6 2 12 -3 12 -12 0 -9 8 -22 18
-29 14 -11 15 -13 2 -14 -9 0 -22 6 -29 13 -11 10 -14 10 -18 0 -6 -18 -28
-16 -103 8 -52 16 -79 19 -132 14 -72 -7 -84 1 -45 29 l22 17 -30 -6 c-16 -3
-46 -14 -65 -24 -19 -10 -53 -21 -75 -25 -44 -8 -131 -43 -155 -61 -8 -6 -31
-18 -50 -25 -52 -20 -57 -29 -16 -27 20 1 36 5 36 8 0 12 199 79 215 73 20 -8
19 -18 -2 -36 -25 -20 -156 -78 -178 -78 -10 0 -32 -11 -49 -23 -37 -29 -101
-51 -122 -43 -25 10 -12 49 23 71 33 20 48 43 37 54 -3 3 -10 -2 -15 -12 -6
-9 -15 -17 -20 -17 -6 0 -17 -7 -26 -15 -8 -8 -18 -13 -23 -10 -4 3 -8 -22 -7
-55 1 -45 5 -60 15 -60 12 0 12 -3 1 -16 -16 -20 -22 -54 -9 -54 6 0 10 8 10
18 0 28 27 58 76 86 56 31 74 33 74 6 0 -11 6 -20 13 -20 26 0 28 14 5 32 -20
15 -21 19 -8 28 47 32 90 17 68 -23 -8 -15 -7 -18 4 -11 10 6 11 5 1 -8 -7 -8
-10 -18 -7 -21 10 -10 86 23 127 55 38 30 67 31 67 3 0 -8 3 -15 8 -15 14 0
77 43 67 46 -5 1 -22 5 -37 8 -50 11 -78 104 -39 126 27 14 27 14 50 -24 30
-49 64 -52 96 -10 33 43 68 45 89 7 12 -24 15 -26 21 -10 9 23 30 22 55 -3 12
-12 26 -18 32 -14 6 4 8 3 4 -4 -3 -5 0 -13 6 -16 7 -3 -16 -3 -52 -1 -36 2
-56 2 -45 -2 25 -7 65 -33 65 -43 0 -12 -93 -5 -98 8 -2 8 -10 7 -27 -4 -15
-10 -33 -13 -51 -8 -29 7 -29 7 -10 -14 24 -27 69 -37 95 -20 25 15 43 1 20
-16 -15 -10 -15 -14 -3 -31 8 -10 14 -13 14 -7 0 7 4 12 10 12 18 0 -2 -29
-23 -32 -12 -2 13 -10 56 -17 42 -8 78 -18 79 -22 0 -5 1 -14 2 -21 1 -9 -51
-12 -207 -13 -169 0 -207 3 -207 14 0 10 -3 11 -13 3 -19 -16 -122 -28 -113
-13 4 6 22 17 39 25 18 7 41 24 52 36 l20 23 -28 -18 c-19 -12 -39 -16 -67
-12 -24 3 -40 1 -40 -5 0 -6 -15 -8 -35 -6 -29 3 -32 2 -22 -12 7 -8 17 -19
22 -23 6 -5 -4 -5 -22 -2 -18 4 -34 2 -38 -4 -7 -12 -55 -15 -55 -4 0 3 8 16
18 27 10 12 4 9 -16 -7 -19 -15 -46 -27 -60 -28 -24 0 -25 -1 -7 -9 11 -5 768
-9 1681 -9 l1662 -1 68 23 c64 20 82 22 249 17 320 -9 808 -5 829 7 16 9 9 12
-44 18 l-64 7 90 23 c133 34 225 70 365 142 375 192 675 535 812 929 35 101
70 240 82 327 l6 47 -663 0 -663 -1 -54 28 c-30 15 -59 37 -65 48 -6 11 -13
22 -17 25 -8 8 -29 108 -29 139 0 37 37 120 64 143 50 42 109 61 183 59 57 -2
73 1 80 14 9 15 11 15 22 1 12 -14 78 -16 572 -16 471 0 559 2 559 14 0 8 -13
65 -29 127 -54 214 -141 403 -268 582 -79 111 -268 299 -382 380 -181 128
-408 228 -637 279 -86 19 -129 22 -334 22 -265 0 -334 -10 -547 -83 l-112 -38
-3 106 -3 106 -320 0 -320 0 0 -48 0 -47 -92 0 -92 0 -3 48 -3 47 -215 0 -215
0 0 -25 c0 -24 -3 -25 -62 -25 -48 0 -68 -5 -92 -22 -26 -20 -43 -23 -116 -23
-52 0 -85 4 -85 10 0 6 7 27 15 47 8 19 15 37 15 39 0 2 -186 4 -414 4 l-414
0 -99 -50 -99 -51 -88 3 -88 3 92 40 c51 22 94 43 97 48 4 7 -583 7 -769 0z
m952 -73 c10 -19 8 -20 -62 -19 -73 0 -73 3 -3 27 45 15 53 14 65 -8z m1500 0
l35 -19 -62 -1 c-56 0 -61 2 -56 20 7 25 37 25 83 0z m-822 -17 c-15 -2 -42
-2 -60 0 -18 2 -6 4 27 4 33 0 48 -2 33 -4z m1112 -43 c6 -11 21 -20 33 -21
21 -1 21 -1 -3 -9 -31 -10 -16 -12 86 -12 l82 1 6 -31 c3 -17 6 -71 6 -120 l0
-89 -27 3 c-40 4 -45 -30 -6 -38 23 -5 29 -11 31 -35 l2 -29 -79 0 c-44 0 -81
4 -83 8 -1 4 -14 3 -26 -4 -21 -10 -13 -12 55 -13 87 -1 82 3 136 -91 25 -44
42 -60 83 -80 77 -37 121 -75 154 -133 38 -67 47 -136 26 -216 -20 -78 -20
-112 -1 -158 8 -19 15 -55 15 -80 0 -36 -6 -50 -29 -74 -41 -40 -79 -40 -88 2
-5 28 -8 30 -37 25 -45 -9 -57 -27 -63 -94 -5 -56 -4 -63 18 -81 13 -11 32
-20 42 -21 10 0 20 -7 24 -16 12 -31 -15 -62 -84 -94 -67 -32 -70 -32 -179
-28 -98 5 -116 8 -160 33 -70 40 -94 64 -94 95 0 34 32 64 58 56 16 -5 20 0
26 31 10 61 6 137 -7 153 -7 8 -29 21 -50 28 -37 13 -40 13 -69 -15 -29 -27
-30 -27 -44 -9 -19 26 -18 42 7 96 18 40 20 56 14 157 -7 109 -6 115 19 167
38 78 96 133 183 173 l74 34 -35 64 c-34 62 -37 90 -13 106 5 3 2 9 -7 12 -9
4 -15 3 -15 -1 1 -4 1 -14 0 -22 -1 -12 -4 -12 -15 3 -10 13 -14 54 -15 140
-1 66 -4 123 -6 126 -3 2 -5 -59 -5 -137 l0 -142 -40 0 c-31 0 -40 4 -41 18 0
15 -1 15 -8 -2 -6 -16 -11 -13 -29 24 -12 24 -19 48 -16 54 7 14 -26 -25 -43
-50 -11 -16 -13 -8 -10 48 1 39 -2 69 -8 72 -13 5 -7 -135 6 -151 11 -13 2
-81 -14 -100 -19 -25 -55 -14 -82 24 -14 21 -25 43 -25 50 0 8 -14 13 -40 13
l-40 0 1 155 c0 86 4 153 9 150 4 -3 6 4 3 15 -5 17 0 20 28 20 31 0 38 -6 68
-56 18 -30 31 -57 29 -59 -1 -1 -18 -6 -37 -10 -26 -6 -33 -4 -30 6 3 8 -9 28
-25 44 -24 25 -27 26 -17 7 7 -13 10 -30 7 -38 -3 -8 1 -14 10 -14 8 0 13 -4
10 -9 -4 -5 -1 -11 5 -13 5 -2 13 -22 16 -45 3 -23 12 -44 19 -47 8 -3 14 0
14 6 0 6 6 5 17 -3 10 -9 7 3 -10 32 -15 25 -27 48 -27 51 0 7 51 22 64 19 17
-4 -62 124 -83 134 -23 11 -28 40 -8 48 6 3 94 6 194 6 172 1 183 0 193 -19z
m-2473 -212 l3 -168 -39 0 -39 0 0 163 c0 89 3 166 5 170 3 4 19 7 36 5 l32
-3 2 -167z m1680 0 l2 -168 -37 0 -37 0 -3 61 c-2 36 1 66 9 75 8 10 8 14 0
14 -8 0 -10 28 -7 93 2 50 4 93 5 95 1 2 16 2 34 0 l32 -3 2 -167z m1120 112
c29 -48 31 -55 15 -58 -9 -2 -21 -8 -27 -14 -7 -7 0 -8 21 -3 31 6 33 5 93
-95 34 -55 61 -103 61 -105 0 -3 -15 -5 -34 -5 -32 0 -37 5 -89 93 -64 106
-86 137 -87 120 0 -6 5 -15 10 -18 6 -3 10 -48 10 -101 l0 -94 -40 0 -40 0 0
148 c0 183 3 194 43 190 25 -2 37 -13 64 -58z m163 -92 l0 -153 -35 55 c-33
53 -35 59 -35 153 l0 97 35 0 35 0 0 -152z m-560 -203 c0 -2 -8 -9 -19 -14
-13 -7 -24 -6 -37 4 -18 13 -16 14 19 15 20 0 37 -2 37 -5z m2331 -422 c13
-16 12 -17 -3 -4 -10 7 -18 15 -18 17 0 8 8 3 21 -13z m-156 -151 c-8 -8 -35
20 -35 37 1 12 5 11 21 -8 11 -13 17 -26 14 -29z m-849 -77 c-3 -9 0 -15 9
-15 21 0 19 -8 -12 -36 -26 -23 -26 -25 -5 -19 31 9 27 -7 -8 -34 -26 -19 -31
-20 -36 -6 -4 8 -3 31 0 51 7 33 6 35 -14 24 -11 -6 -24 -9 -29 -6 -4 3 -18
-6 -29 -19 -12 -14 -29 -25 -37 -25 -28 0 -53 -87 -34 -122 8 -14 6 -18 -8
-18 -10 0 -28 -7 -39 -15 -12 -8 -25 -11 -29 -7 -5 4 -5 1 -1 -5 4 -7 14 -13
22 -13 8 0 14 -7 14 -16 0 -10 -6 -14 -15 -10 -17 6 -40 -16 -75 -73 -20 -33
-29 -40 -47 -36 -30 7 -31 -21 -1 -31 19 -6 17 -8 -18 -21 -21 -8 -51 -17 -66
-20 -16 -3 -28 -9 -28 -14 0 -5 -4 -9 -10 -9 -5 0 -10 13 -10 29 0 16 -5 31
-11 33 -23 8 0 76 39 116 47 49 72 62 117 62 l36 0 -7 48 c-5 41 -2 55 17 85
28 43 60 62 99 59 22 -2 29 3 34 22 6 25 42 41 70 30 9 -3 16 -1 16 4 0 7 13
9 34 5 19 -3 36 -1 40 6 11 17 29 13 22 -4z m115 -18 c-8 -19 -6 -28 5 -38 20
-16 43 3 26 23 -8 10 -2 13 28 13 21 1 36 -3 34 -7 -3 -4 -12 -8 -20 -8 -8 0
-20 -11 -26 -25 -6 -14 -17 -25 -25 -25 -7 0 -13 -5 -13 -12 0 -6 -3 -8 -7 -5
-3 4 -13 1 -21 -6 -13 -10 -15 -7 -10 28 7 46 26 100 34 93 2 -3 0 -17 -5 -31z
m-711 -1 c0 -3 -4 -8 -10 -11 -5 -3 -10 -1 -10 4 0 6 5 11 10 11 6 0 10 -2 10
-4z m695 -116 c-4 -6 1 -7 11 -3 12 4 15 2 12 -8 -7 -20 -32 -17 -36 4 -2 9 2
17 8 17 6 0 8 -4 5 -10z m-34 -20 c13 0 11 -24 -3 -39 -7 -6 -13 -24 -13 -39
0 -19 -6 -28 -20 -30 -32 -6 -55 -33 -56 -66 l-1 -31 -7 30 c-5 23 -12 31 -32
33 -31 4 -41 -15 -32 -58 5 -27 18 -36 46 -31 4 0 7 -10 7 -24 0 -14 5 -25 10
-25 16 0 -6 -36 -26 -44 -13 -5 -15 -2 -11 16 2 13 8 31 12 41 5 13 2 17 -12
17 -10 0 -25 -6 -31 -12 -10 -10 -14 -8 -18 10 -4 13 -14 22 -26 22 -16 0 -18
-6 -16 -37 3 -33 0 -38 -19 -41 -13 -2 -23 -9 -23 -17 0 -17 -22 -25 -50 -18
-17 4 -21 2 -18 -8 3 -8 -3 -24 -14 -36 -20 -21 -20 -21 1 -28 16 -5 19 -10
12 -24 -6 -10 -7 -28 -4 -41 5 -20 3 -22 -16 -17 -40 10 -83 -53 -45 -67 19
-7 49 8 64 32 9 14 10 13 4 -8 -3 -14 -12 -30 -19 -35 -7 -6 -15 -22 -17 -35
-2 -19 -8 -24 -23 -22 -11 2 -42 4 -68 5 l-49 1 7 35 c4 20 13 43 20 51 7 8
16 26 20 40 4 14 22 41 39 60 38 42 64 109 47 120 -9 5 -9 14 -1 35 8 22 13
26 19 16 5 -8 14 -10 20 -7 16 10 14 26 -4 26 -9 0 -15 9 -15 24 0 56 89 114
149 96 28 -8 32 -6 37 18 11 44 33 81 57 93 29 16 79 28 95 23 8 -2 18 -4 23
-4z m286 -37 c-2 -42 -5 -47 -30 -54 -16 -4 -35 -15 -41 -25 -12 -16 -13 -16
-20 1 -4 11 -13 15 -26 12 -24 -6 -25 4 -5 44 18 34 69 69 102 69 20 0 22 -4
20 -47z m-257 -124 c0 -5 -4 -9 -8 -9 -5 0 -9 7 -9 15 0 8 4 12 9 9 4 -3 8 -9
8 -15z m129 -40 c-9 -17 -8 -23 2 -30 8 -5 11 -9 7 -9 -3 0 -13 -2 -20 -5 -11
-4 -13 3 -10 30 3 22 10 35 18 35 12 0 12 -4 3 -21z m-91 -14 c-3 -3 -9 2 -12
12 -6 14 -5 15 5 6 7 -7 10 -15 7 -18z m82 -75 c0 -5 -8 -10 -17 -10 -15 0
-16 2 -3 10 19 12 20 12 20 0z m-657 -56 c-40 -17 -43 -34 -5 -34 l27 -1 -28
-15 c-15 -8 -25 -19 -22 -24 3 -5 -8 -18 -25 -30 -16 -12 -30 -30 -30 -41 0
-33 -18 -21 -19 14 -1 17 -2 48 -4 67 -2 28 2 35 18 38 11 2 27 10 35 17 15
13 43 22 70 23 8 0 0 -6 -17 -14z m417 -18 c0 -2 -7 -7 -16 -10 -8 -3 -12 -2
-9 4 6 10 25 14 25 6z m108 -45 c2 -12 -2 -28 -8 -36 -9 -11 -7 -12 8 -9 10 3
24 -2 31 -10 11 -13 9 -17 -12 -25 -14 -5 -28 -14 -31 -19 -4 -7 -17 -6 -35 1
-43 16 -81 -11 -81 -58 0 -19 5 -35 10 -35 6 0 10 -5 10 -11 0 -6 -6 -9 -14
-6 -8 3 -17 -1 -20 -9 -3 -8 -10 -14 -16 -14 -10 0 -7 60 6 147 5 33 64 113
93 124 22 9 55 -13 59 -40z m-238 -5 c0 -2 -7 -6 -15 -10 -8 -3 -15 -1 -15 4
0 6 7 10 15 10 8 0 15 -2 15 -4z m10 -36 c0 -5 -5 -10 -12 -10 -9 0 -9 -3 0
-12 17 -17 15 -25 -8 -31 -17 -4 -20 -1 -16 21 2 15 5 30 5 35 1 11 31 8 31
-3z m-2250 -46 c0 -16 -22 -27 -43 -22 -10 2 -12 9 -6 25 6 15 14 20 28 16 12
-3 21 -12 21 -19z m-40 -64 c-20 -12 -33 -1 -19 16 9 11 15 12 23 4 8 -8 7
-13 -4 -20z m226 19 c9 -15 -5 -26 -41 -35 l-30 -7 24 27 c27 28 36 32 47 15z
m2251 -56 c-7 -15 -12 -38 -11 -51 1 -19 -3 -23 -18 -18 -11 2 -17 2 -14 -1 7
-7 -13 -33 -25 -33 -5 0 -9 7 -9 15 0 8 4 15 9 15 5 0 16 15 25 34 8 18 22 39
31 46 8 7 15 20 16 29 0 9 3 11 5 4 3 -6 -1 -24 -9 -40z m-2464 -18 c1 -5 -6
-11 -15 -13 -11 -2 -18 3 -18 13 0 17 30 18 33 0z m2627 -25 c0 -5 -10 -10
-22 -9 -22 0 -22 1 -3 9 11 5 21 9 23 9 1 1 2 -3 2 -9z m-2623 -36 c-3 -3 -12
-4 -19 -1 -8 3 -5 6 6 6 11 1 17 -2 13 -5z m193 -20 c0 -18 -36 -18 -43 0 -6
16 10 26 31 18 6 -2 12 -10 12 -18z m-65 -4 c3 -5 1 -10 -4 -10 -6 0 -11 5
-11 10 0 6 2 10 4 10 3 0 8 -4 11 -10z m1930 -58 c11 -34 10 -43 -1 -53 -11
-9 -21 -4 -49 24 -42 42 -43 52 -7 65 38 14 44 11 57 -36z m221 3 c19 -14 19
-14 -3 -30 -26 -18 -46 -74 -41 -117 2 -20 -2 -33 -11 -36 -10 -3 -12 3 -7 24
11 52 -27 75 -69 42 -24 -18 -28 -19 -42 -6 -13 13 -13 19 0 50 31 74 121 112
173 73z m211 -6 c7 -6 13 -15 13 -18 0 -13 -82 -61 -104 -61 -31 0 -46 -19
-46 -56 0 -26 5 -33 28 -39 18 -5 22 -9 12 -13 -8 -3 -18 -9 -21 -15 -4 -6
-13 -5 -25 2 -11 6 -14 11 -7 11 7 0 10 6 7 14 -3 8 -12 12 -20 9 -12 -4 -12
-1 0 22 15 28 11 59 -5 49 -16 -9 -10 20 11 54 34 55 114 76 157 41z m-2438
-53 c9 -11 6 -12 -14 -8 -14 2 -25 8 -25 13 0 14 26 11 39 -5z m98 -6 c4 -12
3 -13 -5 -1 -7 9 -19 12 -38 7 -22 -5 -25 -4 -14 4 20 14 53 8 57 -10z m12
-56 c-6 -8 -8 -14 -3 -14 4 0 3 -5 -3 -11 -14 -14 -55 -2 -47 14 3 7 -1 4 -9
-5 -14 -18 -53 -26 -43 -9 3 4 -8 7 -24 5 -17 -2 -30 1 -30 6 0 14 62 26 133
27 31 1 35 -2 26 -13z m-783 -26 c3 -23 2 -22 -19 3 -17 19 -17 20 -1 17 9 -1
18 -11 20 -20z m3404 8 c0 -2 -7 -7 -16 -10 -8 -3 -12 -2 -9 4 6 10 25 14 25
6z m-3365 -24 c-3 -3 -11 0 -18 7 -9 10 -8 11 6 5 10 -3 15 -9 12 -12z m320
-2 c3 -5 -1 -10 -10 -10 -9 0 -13 5 -10 10 3 6 8 10 10 10 2 0 7 -4 10 -10z
m1705 0 c0 -5 -7 -10 -15 -10 -8 0 -15 5 -15 10 0 6 7 10 15 10 8 0 15 -4 15
-10z m-2000 -14 c0 -2 -13 -6 -29 -8 -17 -2 -28 -1 -25 4 5 8 54 12 54 4z
m753 -8 c-2 -5 -15 -8 -28 -8 -18 0 -22 -4 -18 -20 3 -12 -1 -22 -11 -26 -13
-5 -12 -9 9 -26 16 -12 25 -29 25 -46 0 -39 -23 -78 -43 -74 -10 2 -17 -4 -17
-13 0 -9 5 -13 10 -10 6 4 18 4 26 1 12 -5 10 -12 -11 -43 -28 -42 -16 -58 16
-21 l20 23 -6 -30 c-12 -58 -72 -87 -133 -63 -44 16 -54 44 -20 57 l23 9 -28
11 c-24 9 -27 15 -20 34 4 12 8 38 8 57 1 19 5 43 9 53 5 9 6 23 3 31 -3 8 1
20 9 27 10 8 11 15 4 24 -8 9 -6 14 6 19 12 5 14 9 5 20 -6 7 -9 15 -6 18 8 8
173 4 168 -4z m2107 -7 c0 -19 -22 -23 -38 -7 -15 15 -14 16 11 16 15 0 27 -4
27 -9z m810 -1 c0 -5 -5 -10 -11 -10 -5 0 -7 5 -4 10 3 6 8 10 11 10 2 0 4 -4
4 -10z m-1826 -23 c25 1 46 -2 46 -6 0 -4 -19 -22 -42 -39 -24 -17 -62 -49
-85 -71 -23 -21 -43 -37 -45 -35 -2 2 -17 0 -34 -5 -38 -10 -79 4 -81 28 -1
16 5 19 30 18 29 -1 77 26 77 45 0 4 -14 8 -32 10 -17 2 -33 8 -35 15 -5 13
61 38 76 29 13 -8 61 14 61 28 0 6 4 4 9 -3 6 -10 25 -15 55 -14z m-1797 -5
c0 -10 -6 -19 -13 -19 -9 0 -9 5 -1 19 7 10 13 18 14 18 1 0 1 -8 0 -18z m115
-5 c3 14 5 13 10 -5 4 -13 4 -21 1 -18 -4 3 -13 0 -22 -6 -9 -7 -13 -8 -8 -3
4 4 0 20 -9 34 l-15 26 20 -23 c17 -20 20 -20 23 -5z m-52 9 c0 -2 -8 -10 -17
-17 -16 -13 -17 -12 -4 4 13 16 21 21 21 13z m833 -18 c21 -11 22 -44 1 -52
-9 -3 -51 -6 -95 -6 -85 0 -88 2 -73 57 6 22 10 23 78 17 39 -4 79 -11 89 -16z
m-713 -21 c0 -5 -7 -7 -15 -4 -8 4 -17 2 -20 -3 -4 -6 -14 -10 -23 -10 -12 0
-9 4 8 13 30 16 50 17 50 4z m3585 -67 c-20 -22 -31 -20 -22 5 4 8 14 15 23
15 16 0 16 -2 -1 -20z m-3906 -35 c139 -29 308 -47 432 -46 119 2 127 1 132
-19 7 -29 -14 -70 -38 -70 -26 0 -278 29 -337 39 -26 4 -49 5 -50 0 -3 -7
-213 13 -222 22 -5 5 4 89 10 89 1 0 34 -7 73 -15z m-309 -92 c0 -7 -58 36
-66 49 -4 7 9 -1 29 -16 20 -16 37 -30 37 -33z m2130 22 c-14 -8 -32 -14 -40
-14 -8 0 -1 6 15 14 40 18 57 18 25 0z m-1760 -40 c58 -8 139 -18 180 -22 68
-7 75 -10 81 -33 l7 -25 1 28 c1 26 3 27 49 26 69 0 180 -14 189 -22 4 -5 2
-17 -5 -27 -7 -11 -12 -27 -12 -36 0 -14 -10 -15 -77 -9 -43 4 -86 9 -95 11
-12 4 -18 0 -18 -10 0 -9 -12 -16 -32 -19 -18 -2 25 -3 96 -3 l129 1 10 -28
c5 -16 6 -31 3 -35 -14 -13 -149 -23 -381 -27 -132 -3 -250 -2 -262 1 -18 5
-23 14 -23 37 l0 30 83 -5 c50 -3 95 -1 117 7 34 11 34 12 12 24 -18 10 -22 9
-22 -4 0 -12 -16 -15 -95 -15 l-95 0 0 34 c0 19 3 37 8 39 4 2 43 1 87 -2 44
-3 96 -4 115 -1 22 4 -7 9 -80 14 -63 4 -118 11 -123 15 -4 4 -4 22 -1 39 8
38 8 38 154 17z m710 -99 c0 -4 7 -6 15 -2 21 8 19 -2 -10 -36 -20 -24 -25
-37 -20 -59 6 -25 3 -30 -21 -40 -39 -14 -71 -4 -78 25 -3 13 -9 31 -12 40 -5
13 -1 13 24 4 17 -7 37 -8 48 -3 16 7 12 9 -19 15 -46 9 -61 22 -53 48 6 16
15 19 66 18 33 -1 60 -5 60 -10z m226 -16 c33 0 34 -1 34 -40 l0 -40 -100 0
-100 0 0 38 c0 21 3 42 8 46 4 5 34 5 66 2 32 -3 74 -6 92 -6z m624 -40 l0
-49 -82 5 c-46 3 -114 9 -153 14 -38 4 -71 3 -73 -1 -5 -12 -262 -12 -262 0 0
5 -3 22 -6 39 l-6 31 98 3 c55 2 186 4 292 6 l192 2 0 -50z m2610 46 c0 -2 -8
-10 -17 -17 -16 -13 -17 -12 -4 4 13 16 21 21 21 13z m-2390 -90 c0 -3 -4 -8
-10 -11 -5 -3 -10 -1 -10 4 0 6 5 11 10 11 6 0 10 -2 10 -4z m-298 -12 l66 -7
0 -47 c1 -60 -5 -62 -148 -49 -58 5 -179 12 -270 15 -207 6 -210 7 -211 42 0
26 -1 26 -9 5 -8 -20 -17 -23 -72 -25 l-63 -1 65 -8 c83 -9 159 -31 171 -50 7
-11 9 -10 9 5 0 17 8 18 143 12 160 -7 265 -20 280 -35 6 -6 6 -24 -1 -51 -10
-39 -9 -42 15 -51 13 -5 40 -9 59 -9 32 0 34 1 20 16 -14 14 -24 114 -12 114
2 0 11 3 20 6 14 5 16 -6 16 -90 l0 -96 -72 5 c-57 4 -65 3 -38 -5 19 -5 54
-10 78 -11 l42 -3 0 -80 c0 -43 2 -77 5 -74 3 3 6 54 6 113 0 105 0 107 22
102 12 -3 33 1 47 9 24 14 23 15 -22 12 -46 -3 -48 -2 -48 24 0 21 4 26 17 21
11 -4 14 -3 9 5 -5 8 2 12 21 12 22 0 25 -2 13 -11 -13 -9 -13 -10 0 -6 8 2
14 13 13 23 -2 19 5 21 60 15 4 -1 7 -5 7 -10 0 -4 -11 -6 -25 -3 -15 2 -25 0
-25 -7 0 -6 7 -11 16 -11 8 0 12 -5 8 -11 -5 -8 8 -9 43 -4 63 8 84 -9 54 -46
-17 -21 -20 -22 -34 -7 -9 9 -13 19 -9 23 4 5 2 5 -4 2 -6 -4 -35 0 -64 9 -35
10 -60 13 -73 7 -16 -7 -12 -9 18 -9 25 0 42 -6 52 -19 12 -17 15 -18 23 -5 7
10 10 11 10 3 0 -7 7 -13 16 -13 8 0 12 -4 9 -10 -3 -5 -16 -10 -28 -10 -17 0
-19 -2 -8 -9 8 -5 24 -6 36 -1 25 10 65 -12 65 -34 0 -16 -33 -32 -38 -18 -1
5 -9 18 -17 28 -12 16 -16 17 -24 5 -9 -14 -72 -11 -114 5 -9 3 -17 1 -17 -4
0 -14 104 -35 129 -27 21 6 40 -13 24 -24 -33 -22 -19 -72 21 -70 21 0 21 0
-1 9 -27 11 -30 38 -7 47 10 3 30 1 45 -4 23 -9 29 -8 29 2 0 7 7 15 15 18 23
10 118 -4 144 -21 22 -13 26 -13 38 4 7 10 10 21 6 24 -5 4 -47 13 -94 19
-109 16 -113 18 -104 70 6 38 9 41 38 41 43 0 150 -20 168 -31 11 -7 12 -11 1
-18 -11 -7 -11 -9 2 -14 9 -4 16 -13 16 -22 0 -9 9 -15 24 -15 12 0 36 -4 52
-9 16 -5 75 -23 130 -40 65 -20 104 -37 108 -47 9 -25 -3 -54 -22 -54 -14 0
-174 46 -297 85 -13 4 -12 1 5 -8 14 -8 87 -34 164 -58 134 -42 154 -53 143
-83 -5 -12 -24 -8 -102 20 -134 48 -142 42 -13 -9 92 -37 104 -45 89 -54 -15
-9 -23 -9 -37 2 -11 8 -33 15 -51 15 -18 0 -89 18 -159 40 -70 22 -135 38
-145 35 -10 -3 -27 -1 -38 5 -17 8 -25 6 -42 -11 -17 -17 -28 -20 -62 -15 -23
4 -48 12 -57 19 -8 7 -7 2 4 -10 11 -14 16 -31 13 -44 -5 -19 -3 -21 24 -15
17 3 45 17 63 31 41 31 44 31 56 -1 l10 -25 26 20 c23 18 29 19 53 7 14 -7 41
-11 59 -9 35 6 62 -10 62 -36 0 -10 6 -26 14 -36 12 -16 16 -17 29 -6 9 7 30
11 47 9 18 -2 34 3 39 10 7 11 15 11 44 -2 31 -12 37 -13 48 0 21 26 39 16 39
-21 0 -37 -9 -42 -40 -25 -16 8 -18 8 -14 -5 9 -21 -21 -30 -56 -15 -24 10
-33 9 -52 -4 -28 -20 -84 -20 -122 -1 -31 16 -136 32 -136 21 0 -4 19 -16 43
-26 41 -19 41 -20 12 -20 -16 0 -59 9 -95 20 -77 23 -78 24 -62 8 20 -20 14
-28 -25 -28 -34 0 -35 1 -20 18 15 16 12 17 -39 17 -36 0 -54 -4 -54 -12 0
-19 -48 -15 -59 5 -8 15 -10 15 -16 2 -4 -13 -32 -16 -163 -17 -148 -2 -154
-1 -113 12 30 9 66 12 108 8 44 -4 63 -2 63 6 0 8 -36 11 -118 11 -78 0 -122
4 -130 12 -9 9 -12 8 -12 -6 0 -17 -8 -18 -92 -12 -190 14 -314 27 -353 37
-109 29 -166 39 -233 39 -46 0 -71 4 -67 10 3 6 22 10 40 10 29 0 39 6 57 36
23 35 24 35 76 30 30 -4 78 -15 109 -25 45 -15 56 -16 68 -5 11 12 32 11 132
-1 65 -8 153 -21 196 -28 45 -8 77 -9 77 -4 0 6 51 7 133 2 98 -5 129 -4 121
5 -7 7 -69 12 -165 15 -85 2 -170 7 -189 10 -19 3 -57 7 -85 9 -190 14 -213
18 -223 40 -11 21 -11 21 -11 -2 -1 -20 -5 -23 -28 -18 -16 3 -59 10 -97 15
-37 6 -70 12 -73 14 -9 10 10 77 22 77 8 0 47 -7 87 -16 96 -21 106 -22 363
-31 128 -5 225 -5 233 1 6 4 50 6 97 4 47 -2 85 -1 85 4 0 4 -108 8 -240 8
l-240 0 0 40 c0 44 2 45 103 60 43 6 33 8 -61 9 -107 1 -113 2 -122 24 l-9 22
0 -24 c-1 -27 -8 -26 -164 11 l-89 22 6 40 c4 22 8 42 10 43 1 2 54 -9 117
-23 63 -15 161 -30 219 -34 156 -11 339 -19 310 -14 -68 12 -253 34 -312 36
-39 2 -70 8 -72 14 -3 7 -59 20 -126 30 -90 13 -119 21 -116 31 3 7 -1 27 -8
44 -7 18 -11 41 -8 52 5 19 11 20 106 15 56 -3 153 -2 216 2 163 9 324 11 402
4z m-960 -44 c-5 -46 -4 -45 -124 -55 l-78 -6 0 36 c0 19 1 35 3 36 1 0 45 7
97 14 52 7 97 13 100 14 3 0 4 -17 2 -39z m-866 -10 c65 -28 47 -46 -25 -24
-29 8 -55 13 -58 10 -3 -3 21 -12 53 -21 33 -9 65 -18 72 -21 8 -2 12 -12 10
-21 -6 -27 -83 -21 -157 12 l-61 28 -99 -38 c-70 -26 -104 -34 -116 -28 -23
13 -9 22 115 70 151 59 192 64 266 33z m654 -15 c0 -40 -13 -45 -117 -45 l-73
0 -2 33 -1 32 -4 -30 -4 -30 -139 1 c-77 1 -140 -2 -140 -6 0 -5 198 -22 255
-21 55 0 249 13 324 21 52 6 95 9 97 8 1 -2 5 -14 9 -28 12 -51 -10 -57 -230
-65 -229 -8 -278 -7 -392 1 -93 7 -87 0 -77 100 l6 59 244 2 244 1 0 -33z
m390 14 c0 -30 -26 -52 -63 -53 -48 -1 -36 -16 14 -16 21 0 39 -4 39 -8 0 -4
-13 -23 -30 -42 -32 -39 -38 -55 -15 -46 18 7 20 -14 3 -37 -9 -12 -24 -16
-48 -14 -30 2 -35 6 -38 31 -2 15 2 40 8 55 6 16 11 52 12 82 0 30 1 56 3 59
2 3 28 5 59 5 44 0 56 -3 56 -16z m-907 -36 c11 -10 -13 -32 -28 -27 -8 3 -11
12 -8 20 5 15 25 19 36 7z m1803 -52 c-4 -5 2 -7 13 -4 10 3 22 0 25 -6 5 -7
-4 -11 -23 -11 -21 0 -31 5 -31 15 0 8 5 15 11 15 5 0 8 -4 5 -9z m-1831 -51
c3 -6 -1 -13 -10 -16 -19 -8 -30 0 -20 15 8 14 22 14 30 1z m715 -27 c-1 -45
-10 -47 -197 -51 -98 -2 -180 -7 -183 -12 -3 -4 -14 -10 -25 -12 -11 -3 40 -2
113 0 l132 5 0 -35 c0 -36 0 -36 -52 -42 -29 -3 -116 -10 -193 -16 -77 -5
-168 -12 -203 -15 -56 -4 -61 -3 -47 11 21 22 19 34 -7 34 -13 1 -34 7 -48 15
l-25 14 30 -2 c17 -2 36 -7 43 -11 7 -4 12 -1 12 8 0 13 13 16 63 17 34 0 80
4 102 8 32 7 18 9 -66 10 -106 1 -129 8 -129 41 0 13 2 13 10 0 8 -11 9 -7 4
14 -7 29 -7 29 27 21 44 -10 32 -10 262 0 164 6 197 5 197 -6 0 -10 2 -11 8
-2 4 7 37 14 72 16 36 2 73 4 83 5 10 1 17 -5 17 -15z m-1280 -17 c0 -2 -7 -7
-16 -10 -8 -3 -12 -2 -9 4 6 10 25 14 25 6z m1569 -26 c18 -5 38 -16 45 -24
12 -16 127 -36 206 -36 l51 0 -3 -32 c-3 -28 -7 -33 -33 -36 -17 -2 -73 4
-125 12 -52 9 -113 18 -135 21 -73 10 -94 23 -93 58 0 18 3 35 5 40 6 10 42 9
82 -3z m1331 -10 c0 -5 -4 -10 -9 -10 -6 0 -13 5 -16 10 -3 6 1 10 9 10 9 0
16 -4 16 -10z m-1528 -11 c2 -6 20 -14 41 -18 35 -6 36 -7 24 -31 -11 -21 -20
-25 -54 -25 -38 0 -40 -1 -26 -17 11 -13 21 -15 39 -7 29 10 40 -5 27 -37 -42
-99 -105 -123 -102 -39 2 50 -1 65 -10 65 -6 0 -13 -20 -17 -45 l-6 -45 -114
0 c-102 0 -114 2 -114 18 0 13 -2 14 -9 4 -6 -9 -41 -15 -117 -18 -235 -9
-306 -19 -259 -38 18 -6 211 1 270 10 22 4 111 7 198 8 133 1 157 -1 157 -14
0 -28 -67 -71 -118 -75 -26 -2 -81 -9 -122 -14 -41 -6 -97 -11 -123 -11 -40 0
-49 3 -57 23 -6 15 -9 17 -9 6 -1 -23 -27 -28 -125 -22 -75 5 -86 4 -86 -10 0
-17 13 -22 93 -32 26 -3 47 -10 47 -15 0 -16 -41 -22 -101 -15 -56 7 -64 12
-60 43 2 10 -4 12 -21 6 -19 -6 -21 -4 -11 7 6 8 18 33 26 55 13 38 12 42 -5
53 -22 13 -24 36 -3 27 12 -4 15 3 15 33 l0 38 53 7 c77 9 125 7 129 -5 2 -6
14 -5 33 6 21 11 57 15 120 15 50 0 117 4 150 9 33 5 88 10 122 10 60 1 63 2
69 29 12 53 46 90 56 61z m-87 -29 c0 -23 -4 -25 -54 -28 -60 -3 -101 4 -101
17 0 17 89 41 140 37 9 -1 15 -11 15 -26z m-725 -140 c0 -5 -7 -7 -15 -4 -8 4
-15 8 -15 10 0 2 7 4 15 4 8 0 15 -4 15 -10z m-425 -31 c0 -19 -74 -59 -112
-59 -22 0 -33 5 -35 18 -3 13 11 22 62 38 71 24 85 24 85 3z m335 -70 c0 -5
-9 -9 -20 -9 -19 0 -26 11 -14 23 8 8 34 -3 34 -14z m1120 -61 c69 -11 181
-28 250 -39 69 -10 132 -21 140 -23 28 -9 -455 5 -549 15 -74 8 -96 8 -102 -2
-6 -10 -41 -12 -136 -10 -115 2 -157 10 -141 26 8 8 251 45 259 39 4 -2 9 2
12 9 6 17 99 12 267 -15z m1470 -48 c12 -8 11 -10 -7 -10 -13 0 -23 5 -23 10
0 13 11 13 30 0z"/>
<path d="M3678 4051 c3 -16 7 -20 10 -11 2 8 11 20 18 26 12 9 10 12 -9 12
-20 0 -23 -4 -19 -27z"/>
<path d="M3580 4040 c-6 -11 -8 -20 -6 -20 3 0 10 9 16 20 6 11 8 20 6 20 -3
0 -10 -9 -16 -20z"/>
<path d="M3878 3993 c12 -2 32 -2 45 0 12 2 2 4 -23 4 -25 0 -35 -2 -22 -4z"/>
<path d="M3860 3946 c0 -2 18 -6 39 -8 22 -2 37 0 35 4 -5 8 -74 11 -74 4z"/>
<path d="M3590 3910 c-6 -11 -7 -20 -2 -20 6 0 12 9 15 20 3 11 3 20 1 20 -2
0 -8 -9 -14 -20z"/>
<path d="M3780 3817 c0 -20 4 -37 10 -37 5 0 7 14 3 33 -8 45 -13 47 -13 4z"/>
<path d="M3633 3231 c-55 -34 -56 -100 -1 -146 25 -21 39 -25 77 -23 44 3 47
5 73 53 37 67 36 91 -4 115 -42 25 -104 26 -145 1z"/>
<path d="M3970 3233 c-55 -20 -64 -72 -25 -140 29 -49 49 -53 114 -27 78 31
95 109 32 151 -32 22 -86 29 -121 16z"/>
<path d="M3798 3028 c-24 -24 -22 -96 2 -89 8 3 40 5 70 5 53 1 55 2 58 29 2
16 -3 39 -12 51 -19 31 -89 33 -118 4z"/>
<path d="M3970 4031 c0 -5 5 -13 10 -16 6 -3 10 -2 10 4 0 5 -4 13 -10 16 -5
3 -10 2 -10 -4z"/>
<path d="M3995 3960 c-3 -6 1 -7 9 -4 18 7 21 14 7 14 -6 0 -13 -4 -16 -10z"/>
<path d="M4724 2919 c-16 -17 -16 -22 -4 -30 20 -12 41 -7 54 14 8 14 8 20 -4
27 -21 14 -24 13 -46 -11z"/>
<path d="M4696 2873 c-12 -12 -6 -33 9 -33 8 0 15 6 15 14 0 17 -14 28 -24 19z"/>
<path d="M4522 2657 c-18 -22 11 -56 35 -41 25 15 23 48 -3 52 -11 2 -26 -3
-32 -11z"/>
<path d="M5090 2994 c0 -8 5 -12 10 -9 6 3 10 10 10 16 0 5 -4 9 -10 9 -5 0
-10 -7 -10 -16z"/>
<path d="M4763 2688 c-6 -7 -13 -22 -15 -33 -2 -16 3 -20 27 -20 27 0 30 3 30
30 0 32 -24 45 -42 23z"/>
<path d="M4726 2613 c-11 -11 -6 -23 9 -23 8 0 15 4 15 9 0 13 -16 22 -24 14z"/>
<path d="M4590 2366 c0 -21 21 -31 30 -15 5 7 6 17 4 21 -9 14 -34 9 -34 -6z"/>
<path d="M4635 2320 c3 -5 8 -10 11 -10 2 0 4 5 4 10 0 6 -5 10 -11 10 -5 0
-7 -4 -4 -10z"/>
<path d="M2628 1903 c6 -2 18 -2 25 0 6 3 1 5 -13 5 -14 0 -19 -2 -12 -5z"/>
<path d="M2103 1593 c9 -2 25 -2 35 0 9 3 1 5 -18 5 -19 0 -27 -2 -17 -5z"/>
<path d="M2248 1583 c7 -3 16 -2 19 1 4 3 -2 6 -13 5 -11 0 -14 -3 -6 -6z"/>
<path d="M2108 1533 c18 -2 45 -2 60 0 15 2 0 4 -33 4 -33 0 -45 -2 -27 -4z"/>
<path d="M3638 1203 c6 -2 18 -2 25 0 6 3 1 5 -13 5 -14 0 -19 -2 -12 -5z"/>
<path d="M3600 1089 c0 -8 38 -19 68 -19 24 0 31 19 7 21 -47 4 -75 3 -75 -2z"/>
<path d="M3870 1072 c-64 -3 -92 -11 -85 -23 5 -7 11 -6 20 1 9 8 31 7 80 -1
56 -11 68 -11 76 2 18 28 18 28 -91 21z"/>
<path d="M3590 1020 c0 -16 34 -28 63 -23 40 8 33 26 -8 21 -19 -2 -35 0 -35
4 0 4 -4 8 -10 8 -5 0 -10 -4 -10 -10z"/>
<path d="M3690 1022 c0 -12 19 -26 26 -19 2 2 -2 10 -11 17 -9 8 -15 8 -15 2z"/>
<path d="M3630 939 c-30 -3 -44 -6 -29 -7 14 -1 29 -6 35 -11 10 -11 64 -3 64
10 0 13 -12 15 -70 8z"/>
<path d="M3608 873 c7 -3 16 -2 19 1 4 3 -2 6 -13 5 -11 0 -14 -3 -6 -6z"/>
<path d="M3641 864 c-7 -9 -11 -18 -8 -21 9 -8 67 8 67 19 0 6 -6 8 -14 5 -7
-3 -17 -2 -22 3 -5 5 -15 2 -23 -6z"/>
<path d="M3776 871 c-3 -5 0 -11 7 -14 8 -3 14 1 14 9 0 16 -13 19 -21 5z"/>
<path d="M2540 1005 c7 -8 17 -12 22 -9 6 4 5 10 -3 15 -22 14 -33 10 -19 -6z"/>
<path d="M1658 4073 l62 -4 0 -34 c0 -32 -2 -34 -37 -38 l-38 -4 40 1 c40 1
40 1 40 41 l0 40 -65 1 -65 1 63 -4z"/>
<path d="M1827 4073 c-3 -4 16 -6 42 -5 l48 4 28 -77 c15 -42 29 -74 32 -72 2
3 -9 38 -24 78 l-28 74 -47 3 c-25 2 -48 -1 -51 -5z"/>
<path d="M2573 4035 c0 -22 2 -30 4 -17 2 12 2 30 0 40 -3 9 -5 -1 -4 -23z"/>
<path d="M2710 3981 c14 -28 14 -29 -22 -36 l-33 -6 3 -105 3 -104 -40 0 -41
0 0 104 c0 57 4 106 9 108 5 2 3 9 -5 16 -11 10 -14 10 -14 -1 0 -8 -11 -12
-32 -11 -26 1 -27 0 -5 -3 22 -4 27 -9 27 -33 0 -15 -6 -31 -12 -33 -8 -3 -6
-6 5 -6 9 -1 17 -5 17 -9 0 -10 -62 -47 -74 -44 -14 4 -46 -9 -46 -19 0 -5 3
-8 8 -8 4 1 31 1 60 0 51 -1 52 -2 52 -31 0 -28 -1 -29 -57 -33 -32 -2 -8 -3
52 -3 106 1 110 2 113 24 5 32 49 31 62 -2 5 -14 18 -30 29 -35 32 -17 20 14
-43 120 -31 51 -55 93 -54 94 35 18 57 22 68 12 6 -7 2 5 -10 26 -22 38 -39
53 -20 18z"/>
<path d="M2623 3972 c-1 -10 5 -19 12 -19 10 0 11 5 4 19 -5 10 -11 18 -12 18
-2 0 -3 -8 -4 -18z"/>
<path d="M1861 3927 c-6 -25 -12 -51 -14 -58 -2 -8 -2 -11 0 -6 3 4 16 7 29 7
16 0 24 5 23 18 0 10 -3 12 -6 5 -2 -7 -12 -13 -20 -13 -10 0 -13 6 -9 16 3 9
6 21 6 27 0 7 5 6 10 -3 8 -11 9 -7 4 15 -9 42 -10 41 -23 -8z"/>
<path d="M1680 3944 c8 -4 21 -14 28 -23 13 -14 13 -14 10 4 -2 13 -12 21 -28
22 -14 1 -18 0 -10 -3z"/>
<path d="M2403 3840 c0 -25 2 -35 4 -22 2 12 2 32 0 45 -2 12 -4 2 -4 -23z"/>
<path d="M2200 3810 c-9 -6 -10 -10 -3 -10 6 0 15 5 18 10 8 12 4 12 -15 0z"/>
<path d="M1723 3760 c0 -25 2 -35 4 -22 2 12 2 32 0 45 -2 12 -4 2 -4 -23z"/>
<path d="M2728 3254 c-50 -27 -47 -99 5 -138 38 -28 141 -35 167 -11 30 28 27
85 -7 117 -50 48 -114 60 -165 32z"/>
<path d="M2385 3238 c-37 -22 -40 -27 -43 -72 -4 -66 15 -86 81 -86 54 0 113
23 127 50 5 9 10 34 12 54 3 50 -18 68 -84 73 -42 3 -61 -1 -93 -19z"/>
<path d="M1216 3210 c-15 -5 -37 -17 -47 -26 -64 -58 48 -156 135 -120 40 17
53 33 61 76 5 28 2 39 -14 54 -23 21 -93 30 -135 16z"/>
<path d="M1488 3204 c-25 -24 15 -118 56 -134 21 -8 55 4 68 24 14 21 8 73
-10 89 -20 18 -102 33 -114 21z"/>
<path d="M2660 3099 c0 -7 -12 -9 -34 -5 -31 6 -36 3 -56 -29 -16 -25 -20 -43
-15 -63 9 -37 24 -43 59 -25 23 12 34 13 48 4 51 -32 78 22 43 88 -15 29 -45
49 -45 30z"/>
<path d="M1400 3030 c-27 -27 -36 -68 -18 -86 12 -13 19 -13 49 0 23 9 40 11
50 5 31 -20 42 -11 36 32 -7 51 -14 59 -60 65 -28 3 -42 -1 -57 -16z"/>
<path d="M2891 2952 c-1 -7 -5 -11 -10 -8 -5 3 -19 -2 -30 -12 -17 -13 -22
-29 -23 -72 -1 -30 2 -70 6 -88 7 -28 11 -32 29 -26 12 4 27 13 35 20 8 8 23
12 36 8 20 -5 25 0 38 40 12 35 12 46 3 46 -7 0 -18 7 -25 15 -7 8 -21 15 -32
15 -14 0 -18 5 -14 15 3 8 1 25 -4 37 -5 13 -9 17 -9 10z"/>
<path d="M2583 2818 c-13 -6 -23 -18 -23 -26 0 -12 3 -12 15 -2 8 7 15 9 15 5
0 -4 7 -1 17 6 9 8 18 13 20 12 1 -2 13 -3 26 -2 21 0 21 1 2 9 -27 11 -45 11
-72 -2z"/>
<path d="M2686 2817 c3 -8 10 -14 17 -15 22 -2 42 -7 55 -16 12 -7 12 -4 2 14
-9 16 -14 19 -20 11 -5 -9 -9 -9 -13 3 -4 9 -15 16 -26 16 -13 0 -18 -5 -15
-13z"/>
<path d="M2537 2793 c-4 -3 -7 -11 -7 -17 0 -6 5 -5 12 2 6 6 9 14 7 17 -3 3
-9 2 -12 -2z"/>
<path d="M2780 2790 c0 -5 5 -10 11 -10 5 0 7 5 4 10 -3 6 -8 10 -11 10 -2 0
-4 -4 -4 -10z"/>
<path d="M2580 2732 c-65 -32 -81 -59 -29 -47 19 4 69 10 111 14 42 3 79 9 83
12 7 8 -75 49 -96 49 -8 0 -39 -13 -69 -28z"/>
<path d="M6474 2603 c3 -16 0 -55 -8 -88 -15 -61 -9 -85 19 -85 19 0 36 25 25
36 -6 6 -4 32 5 69 21 89 20 95 -16 95 -28 0 -30 -2 -25 -27z"/>
<path d="M6313 2609 c-8 -8 -9 -17 -4 -23 6 -7 4 -37 -4 -76 -8 -37 -10 -69
-5 -74 14 -14 38 1 42 26 2 18 11 24 42 29 62 10 100 77 62 108 -22 18 -118
25 -133 10z m97 -47 c0 -21 -18 -42 -37 -42 -13 0 -18 41 -6 53 14 14 43 7 43
-11z"/>
<path d="M6995 2610 c-3 -5 -1 -10 4 -10 6 0 11 5 11 10 0 6 -2 10 -4 10 -3 0
-8 -4 -11 -10z"/>
<path d="M5783 2592 c-3 -11 -16 -23 -29 -26 -24 -6 -39 -39 -32 -73 2 -13 12
-18 36 -18 35 -1 35 0 46 82 6 43 -11 72 -21 35z m-3 -55 c0 -7 -6 -21 -13
-32 -17 -22 -32 -5 -22 25 7 22 35 28 35 7z"/>
<path d="M6065 2599 c-10 -15 3 -25 16 -12 7 7 7 13 1 17 -6 3 -14 1 -17 -5z"/>
<path d="M6167 2603 c-3 -5 -8 -36 -12 -70 -8 -69 6 -86 21 -26 12 50 36 57
32 10 -2 -20 2 -36 7 -37 6 0 10 19 10 43 0 38 -2 42 -23 41 -18 -1 -22 4 -19
18 5 18 -8 35 -16 21z"/>
<path d="M7051 2597 c0 -10 -8 -20 -17 -24 -9 -3 -12 -8 -5 -12 7 -4 7 -21 0
-50 -12 -54 -6 -71 23 -70 17 1 18 2 6 6 -31 8 -18 100 16 113 16 7 17 9 4 9
-9 1 -19 11 -21 24 -3 15 -5 17 -6 4z"/>
<path d="M6106 2579 c-10 -31 -7 -91 5 -103 6 -6 13 -6 21 2 9 9 9 12 0 12
-17 0 -15 58 3 62 12 2 11 7 -4 27 l-18 24 -7 -24z"/>
<path d="M6585 2571 c-49 -21 -75 -79 -51 -116 14 -21 22 -24 71 -21 59 3 75
10 58 27 -7 7 -7 24 0 54 6 25 8 47 5 50 -10 10 -64 14 -83 6z m31 -65 c-9
-48 -46 -60 -46 -14 0 19 38 63 47 54 3 -3 2 -21 -1 -40z"/>
<path d="M5503 2554 c-2 -7 -3 -29 -1 -50 4 -39 11 -33 22 19 9 41 24 33 28
-15 4 -43 11 -38 22 15 9 41 26 32 26 -14 0 -24 4 -38 10 -34 6 3 10 26 10 49
l0 43 -56 -1 c-32 -1 -58 -6 -61 -12z"/>
<path d="M5649 2549 c-13 -13 -19 -30 -17 -47 2 -23 8 -27 33 -27 37 0 45 10
45 58 0 30 -4 37 -20 37 -11 0 -29 -9 -41 -21z m41 -12 c0 -7 -6 -22 -14 -33
-14 -18 -15 -18 -21 -1 -7 17 10 47 26 47 5 0 9 -6 9 -13z"/>
<path d="M5827 2552 c-21 -23 -22 -55 -2 -72 15 -13 55 -5 55 12 0 5 -7 7 -16
4 -32 -12 -35 7 -4 25 17 11 30 25 27 32 -6 20 -42 19 -60 -1z m38 -12 c-3 -5
-10 -10 -16 -10 -5 0 -9 5 -9 10 0 6 7 10 16 10 8 0 12 -4 9 -10z"/>
<path d="M5931 2538 c0 -18 4 -42 8 -53 7 -18 10 -17 30 15 21 35 21 35 21 8
0 -15 5 -30 10 -33 12 -8 55 83 44 93 -3 4 -9 2 -11 -4 -2 -6 -10 -20 -18 -30
-14 -18 -14 -18 -15 9 0 15 -4 27 -10 27 -5 0 -16 -12 -24 -27 -14 -26 -15
-26 -16 -6 0 12 -4 25 -10 28 -6 4 -10 -7 -9 -27z"/>
<path d="M6056 2548 c-9 -34 -7 -68 3 -68 10 0 21 34 21 68 0 12 -4 22 -9 22
-5 0 -11 -10 -15 -22z"/>
<path d="M6707 2556 c-26 -20 -41 -70 -27 -96 9 -18 19 -21 57 -18 26 2 48 8
50 15 3 8 -6 10 -31 6 -34 -5 -36 -4 -36 21 0 15 5 36 10 47 11 20 40 27 40 9
0 -5 9 -10 20 -10 23 0 26 10 8 28 -16 16 -69 15 -91 -2z"/>
<path d="M6841 2551 c-26 -26 -37 -69 -24 -90 12 -19 94 -23 100 -4 3 7 -8 10
-28 10 -18 -1 -34 4 -36 11 -3 8 5 12 24 12 40 0 66 21 61 51 -2 20 -9 25 -40
27 -27 2 -43 -3 -57 -17z m62 -8 c11 -10 -14 -33 -36 -33 -19 0 -20 1 -2 20
19 21 28 24 38 13z"/>
<path d="M6975 2543 c0 -16 -4 -45 -8 -65 -6 -28 -5 -38 5 -38 7 0 13 12 13
28 0 15 4 44 8 65 6 27 5 37 -5 37 -7 0 -13 -12 -13 -27z"/>
<path d="M1514 2259 c2 -42 17 -59 52 -59 12 0 27 -7 34 -15 7 -8 17 -15 22
-15 6 0 -5 18 -23 39 -19 21 -42 51 -52 65 -25 37 -35 32 -33 -15z"/>
<path d="M2295 2230 c-3 -5 -1 -10 4 -10 6 0 11 5 11 10 0 6 -2 10 -4 10 -3 0
-8 -4 -11 -10z"/>
<path d="M932 2132 c-19 -15 -23 -26 -20 -62 l3 -44 54 3 c42 2 58 8 75 28 28
33 97 46 127 25 17 -11 39 -13 101 -9 94 8 131 22 78 31 -76 12 -301 27 -320
21 -12 -4 -20 -2 -20 5 0 7 -8 9 -20 5 -11 -4 -20 -2 -20 4 0 16 -12 13 -38
-7z"/>
<path d="M1437 2068 c-6 -39 -5 -40 17 -32 10 4 16 17 16 35 0 41 -26 38 -33
-3z"/>
<path d="M1030 1975 c0 -8 7 -15 16 -15 14 0 14 3 4 15 -7 8 -14 15 -16 15 -2
0 -4 -7 -4 -15z"/>
<path d="M2315 1850 c28 -5 68 -8 90 -8 35 1 33 2 -15 8 -30 5 -71 8 -90 8
-28 -1 -25 -2 15 -8z"/>
<path d="M3370 1798 c0 -5 -78 -8 -174 -8 -207 0 -251 -17 -56 -22 71 -2 131
0 133 4 1 3 56 11 122 15 118 9 119 9 47 14 -39 2 -72 1 -72 -3z"/>
<path d="M1300 1789 c-153 -28 -210 -43 -210 -54 0 -13 -46 -27 -127 -40 -23
-4 -44 -13 -47 -21 -3 -8 -2 -14 2 -14 22 0 176 50 181 59 9 14 116 41 166 41
22 0 65 9 95 20 51 17 53 19 20 18 -19 0 -55 -4 -80 -9z"/>
<path d="M1075 1770 c3 -5 8 -10 11 -10 2 0 4 5 4 10 0 6 -5 10 -11 10 -5 0
-7 -4 -4 -10z"/>
<path d="M3260 1711 c0 -6 -12 -11 -27 -12 -16 0 -37 -4 -47 -8 -18 -7 -18 -8
-3 -14 9 -3 17 -2 17 3 0 6 65 11 163 12 l162 1 -121 7 c-66 3 -125 10 -132
14 -7 4 -12 2 -12 -3z"/>
<path d="M1155 1685 c-16 -8 -23 -14 -15 -14 8 0 26 6 40 14 32 18 15 18 -25
0z"/>
<path d="M2858 1683 c29 -2 74 -2 100 0 26 2 2 3 -53 3 -55 0 -76 -1 -47 -3z"/>
<path d="M3048 1683 c23 -2 59 -2 80 0 20 2 1 4 -43 4 -44 0 -61 -2 -37 -4z"/>
<path d="M4097 1667 c45 -12 84 -25 88 -28 3 -4 16 -4 28 -1 15 4 -5 13 -68
29 -49 12 -99 22 -110 22 -11 -1 17 -11 62 -22z"/>
<path d="M1468 1663 c-19 -5 -24 -38 -10 -60 12 -20 54 14 50 40 -3 22 -13 27
-40 20z"/>
<path d="M3868 1565 c-3 -13 -2 -22 2 -20 11 7 20 45 10 45 -4 0 -10 -11 -12
-25z"/>
<path d="M1010 1545 c-19 -7 -28 -14 -20 -14 8 0 29 6 45 14 39 17 21 18 -25
0z"/>
<path d="M930 1520 c-18 -12 -2 -12 25 0 13 6 15 9 5 9 -8 0 -22 -4 -30 -9z"/>
<path d="M1231 1494 c-63 -30 -97 -41 -181 -59 -8 -2 -21 -4 -28 -4 -7 -1 -11
-5 -8 -10 3 -4 -17 -20 -45 -36 -28 -15 -48 -29 -46 -31 2 -3 21 5 41 17 21
12 50 23 66 25 15 2 52 12 81 23 29 11 56 18 61 15 4 -3 8 1 8 9 0 8 34 30 78
50 42 20 70 36 62 36 -8 0 -48 -16 -89 -35z"/>
<path d="M1021 1486 c-117 -35 -145 -59 -59 -50 57 7 165 41 174 56 16 25 -20
23 -115 -6z"/>
<path d="M1259 1426 c-30 -13 -66 -30 -80 -39 -13 -8 -45 -19 -71 -22 -27 -4
-48 -11 -48 -16 0 -4 -29 -24 -65 -44 -86 -48 -83 -55 4 -10 42 22 75 33 86
29 9 -4 20 -3 24 3 3 5 50 31 104 57 53 27 100 53 103 57 7 12 8 12 -57 -15z"/>
<path d="M4058 1423 c7 -3 16 -2 19 1 4 3 -2 6 -13 5 -11 0 -14 -3 -6 -6z"/>
<path d="M4110 1409 c13 -5 28 -15 32 -22 6 -9 8 -9 8 0 0 9 15 7 51 -8 29
-11 57 -18 63 -16 15 5 -89 43 -139 50 -33 6 -36 5 -15 -4z"/>
<path d="M4150 1347 c0 -9 12 -14 33 -14 17 -1 25 2 17 4 -8 3 -23 10 -32 15
-13 6 -18 5 -18 -5z"/>
<path d="M3961 1311 c9 -6 36 -13 60 -16 54 -7 24 9 -36 19 -28 4 -35 3 -24
-3z"/>
<path d="M4258 1243 c7 -3 16 -2 19 1 4 3 -2 6 -13 5 -11 0 -14 -3 -6 -6z"/>
<path d="M1291 1229 c-2 -25 -35 -49 -67 -49 -18 0 -34 -7 -41 -19 -7 -11 -28
-25 -48 -31 -21 -7 -49 -18 -63 -26 l-27 -14 30 0 c41 0 165 42 165 57 0 16
12 22 50 27 17 2 38 10 48 18 9 9 34 21 55 28 21 6 36 14 33 17 -3 3 -26 -2
-52 -11 -60 -20 -71 -20 -77 2 -4 14 -5 14 -6 1z"/>
<path d="M1060 859 c0 -5 5 -7 10 -4 6 3 10 8 10 11 0 2 -4 4 -10 4 -5 0 -10
-5 -10 -11z"/>
</g>
</svg>
