<?xml version="1.0" standalone="no"?>
<!DOCTYPE svg PUBLIC "-//W3C//DTD SVG 20010904//EN"
 "http://www.w3.org/TR/2001/REC-SVG-20010904/DTD/svg10.dtd">
<svg version="1.0" xmlns="http://www.w3.org/2000/svg"
 width="1035.000000pt" height="147.000000pt" viewBox="0 0 1035.000000 147.000000"
 preserveAspectRatio="xMidYMid meet">
<metadata>
Created by potrace 1.16, written by Peter Selinger 2001-2019
</metadata>
<g transform="translate(0.000000,147.000000) scale(0.100000,-0.100000)"
fill="#000000" stroke="none">
<path d="M0 735 l0 -735 5175 0 5175 0 0 735 0 735 -5175 0 -5175 0 0 -735z
m381 564 l30 -21 -1 -278 c-1 -228 -4 -285 -16 -310 -9 -16 -20 -30 -25 -30
-5 0 -9 -7 -9 -15 0 -17 16 -20 25 -5 20 33 25 -8 25 -209 l0 -219 -30 -4
c-16 -3 -34 0 -39 5 -5 5 -17 5 -29 -2 -11 -6 -48 -11 -82 -11 -70 0 -81 12
-56 61 13 26 13 30 1 25 -13 -5 -15 21 -15 184 0 148 3 191 13 197 8 4 17 21
21 36 4 19 3 26 -4 22 -5 -3 -10 -15 -10 -26 0 -10 -4 -19 -10 -19 -13 0 -13
519 1 536 7 8 7 14 -1 19 -14 9 -13 72 3 78 6 3 50 6 95 6 70 1 89 -3 113 -20z
m357 5 c76 -15 163 -56 195 -91 9 -10 31 -50 49 -88 l33 -70 3 -275 c3 -261 2
-277 -19 -334 -26 -73 -58 -124 -81 -132 -10 -3 -18 -12 -18 -20 0 -8 -27 -27
-60 -43 -68 -33 -212 -54 -320 -49 l-65 3 -3 103 -3 103 99 -3 c55 -2 103 1
108 5 5 5 24 17 42 28 63 37 72 75 72 322 0 197 -2 221 -20 260 -31 65 -64 80
-192 85 l-108 5 0 97 c0 53 3 100 7 103 12 13 204 7 281 -9z m5182 6 c0 -5 6
-10 14 -10 8 0 17 -7 20 -16 4 -9 6 -142 6 -295 -1 -278 -1 -278 -26 -314 -28
-42 -29 -45 -9 -45 8 0 15 5 15 10 0 6 5 10 10 10 6 0 10 -80 10 -219 l0 -219
-22 -3 c-13 -2 -68 -4 -123 -4 -109 0 -111 1 -91 64 6 16 5 21 -3 17 -8 -5
-11 46 -11 183 0 177 1 190 19 196 12 4 18 14 17 30 -1 30 -16 34 -16 5 0 -11
-4 -20 -10 -20 -15 0 -13 520 3 538 9 12 9 16 0 19 -7 3 -13 20 -13 38 0 18 6
36 13 38 24 10 197 7 197 -3z m396 -10 c70 -15 152 -66 185 -115 16 -22 37
-70 49 -106 20 -62 21 -82 18 -340 l-3 -274 -27 -56 c-38 -76 -94 -134 -159
-163 -63 -28 -212 -49 -309 -44 l-65 3 -3 103 -3 103 100 -2 c94 -1 101 0 143
28 73 49 77 65 77 323 1 323 -10 339 -211 348 l-108 5 0 97 c0 69 4 100 13
104 19 9 247 -1 303 -14z m-5157 -7 c10 -17 12 -17 25 0 11 15 26 17 77 15
l64 -3 1 -35 c0 -19 -4 -43 -10 -52 -7 -11 -6 -21 1 -30 14 -17 16 -342 2
-385 -7 -21 -18 -33 -32 -35 -22 -3 -39 -48 -18 -48 6 0 11 5 11 11 0 6 10 9
23 7 l22 -3 2 -252 c1 -199 -2 -255 -12 -263 -17 -14 -85 -2 -81 13 2 7 1 9
-1 5 -7 -11 -43 -10 -43 1 0 6 12 16 28 23 19 10 26 20 25 37 -2 13 1 20 7 16
6 -4 19 4 30 17 21 25 26 48 10 48 -5 0 -10 -6 -10 -14 0 -19 -68 -69 -85 -62
-17 6 -21 36 -5 36 6 0 10 5 10 11 0 14 -52 2 -62 -14 -3 -6 -3 -19 2 -28 7
-12 5 -21 -5 -29 -14 -11 -14 -15 0 -30 23 -25 2 -35 -29 -15 -28 19 -45 91
-28 120 5 11 6 33 1 54 -4 20 -8 143 -8 274 1 184 4 239 14 245 7 4 15 18 17
32 2 20 9 26 36 28 35 4 42 -10 17 -34 -8 -9 -15 -24 -15 -35 0 -10 -4 -19
-10 -19 -16 0 -11 -28 6 -38 11 -6 15 -17 11 -31 -3 -15 -1 -21 6 -18 7 2 11
22 10 47 -2 32 4 48 23 68 30 33 30 50 2 62 -32 13 -58 35 -58 49 0 8 -5 9
-19 1 -30 -16 -33 -13 -28 36 2 29 10 51 20 59 23 17 21 28 -9 58 -23 23 -25
31 -19 71 7 44 9 46 41 46 21 0 37 -6 43 -17z m721 -83 l0 -100 -117 -1 c-65
0 -169 -3 -232 -5 -168 -8 -161 -12 -161 100 0 51 3 95 6 98 3 3 118 6 255 7
l249 1 0 -100z m673 83 c3 -10 30 -88 60 -173 205 -577 317 -897 317 -907 0
-10 -34 -13 -135 -13 -120 0 -136 2 -143 18 -4 9 -20 62 -37 117 l-31 100
-152 3 c-112 2 -152 6 -152 15 0 6 7 35 15 62 9 28 20 67 26 88 l10 37 85 0
c99 0 104 5 81 78 -8 26 -32 107 -52 180 -21 73 -40 131 -42 128 -2 -2 -33
-104 -67 -227 -84 -295 -123 -426 -141 -469 -7 -19 -16 -52 -20 -73 -8 -49
-32 -59 -144 -55 l-86 3 1 100 c0 85 5 113 30 182 16 46 35 83 42 83 6 0 12 6
12 14 0 8 6 17 13 19 7 3 5 6 -5 6 -20 1 -14 29 10 47 8 6 12 16 8 22 -4 7 15
78 42 159 58 174 138 407 154 446 l10 27 143 0 c127 0 143 -2 148 -17z m645 1
c22 -15 22 -17 22 -303 l0 -288 -25 -27 c-28 -31 -32 -46 -10 -46 8 0 15 5 15
11 0 5 5 7 10 4 6 -4 10 -88 10 -220 l0 -213 -116 -7 c-129 -8 -145 -3 -126
40 15 32 15 48 2 40 -7 -4 -10 60 -10 185 0 180 1 191 20 198 14 5 17 11 10
22 -7 11 -10 11 -10 2 0 -7 -4 -10 -10 -7 -16 10 -13 517 3 534 10 11 10 14 0
18 -7 3 -13 20 -13 39 l0 34 103 0 c77 0 108 -4 125 -16z m436 -12 c74 -34
119 -75 148 -134 46 -94 50 -126 46 -414 l-3 -269 -28 -58 c-41 -82 -114 -152
-180 -172 -68 -20 -217 -37 -292 -33 l-60 3 -3 103 -3 102 103 0 c96 1 106 3
143 28 70 48 74 66 75 325 0 209 -2 231 -20 267 -29 57 -66 72 -190 79 l-105
6 -3 99 -3 98 163 -4 c141 -4 170 -7 212 -26z m496 -221 c0 -137 -3 -256 -6
-266 -4 -9 -17 -21 -30 -26 -34 -12 -30 -29 6 -29 l31 0 -3 -262 -3 -263 -40
0 c-74 0 -116 35 -59 49 30 8 30 40 -1 42 -44 2 -47 4 -42 24 3 12 0 20 -8 20
-20 0 -36 -26 -29 -45 4 -10 1 -21 -7 -26 -12 -7 -12 -12 -1 -30 17 -27 12
-32 -21 -16 -17 8 -27 22 -31 42 -3 16 -5 169 -5 338 -1 264 1 309 14 313 8 4
15 18 15 33 0 24 4 28 30 28 29 0 41 -19 20 -32 -5 -3 -10 -17 -10 -31 0 -15
-6 -24 -16 -24 -21 0 -13 -20 16 -39 23 -16 23 -16 18 20 -5 29 -3 37 15 45
30 13 35 60 8 69 -25 8 -27 30 -5 39 16 6 16 8 0 24 -9 10 -16 24 -16 31 0 8
-7 10 -20 6 -21 -7 -60 10 -60 25 0 6 9 10 20 10 22 0 27 29 9 47 -19 19 1 36
34 29 29 -6 30 -6 24 30 -9 55 13 74 90 74 l62 0 1 -249z m560 149 c0 -100 0
-100 -27 -106 -29 -8 -471 4 -485 12 -9 6 -11 117 -2 162 l6 31 254 0 254 0 0
-99z m312 83 c9 -10 36 -56 61 -103 26 -47 58 -100 72 -119 14 -19 25 -42 25
-51 0 -9 9 -25 20 -35 32 -29 24 -41 -37 -56 -85 -20 -157 -19 -161 4 -2 12 3
17 18 17 33 0 19 23 -21 34 -19 6 -39 17 -46 25 -34 45 -163 270 -163 284 0
15 14 17 108 17 91 0 111 -3 124 -17z m648 -490 c-1 -572 6 -537 -77 -383 -26
47 -54 93 -64 103 -9 10 -36 55 -58 99 l-42 81 0 151 c0 83 -2 213 -6 288 -3
75 -3 144 0 152 5 13 27 16 127 16 l120 0 0 -507z m1729 424 c28 -46 54 -92
58 -103 4 -10 19 -37 35 -58 15 -21 28 -47 28 -57 0 -10 9 -23 20 -29 51 -27
0 -53 -131 -67 -46 -4 -63 -3 -69 7 -12 19 -3 30 23 30 l22 1 -24 19 c-13 11
-30 20 -39 20 -8 0 -21 8 -29 18 -24 31 -173 282 -173 292 0 6 45 10 114 10
l115 0 50 -83z m981 70 c0 -8 -23 -52 -51 -98 -28 -46 -63 -105 -78 -131 -14
-25 -39 -61 -54 -78 -16 -17 -26 -34 -23 -37 6 -6 -26 -66 -65 -123 -13 -20
-89 -144 -169 -277 -80 -134 -148 -243 -152 -243 -5 0 -8 84 -8 188 l0 187 47
80 c25 44 61 101 78 126 18 25 35 55 39 66 4 12 13 24 21 27 8 3 15 13 15 23
0 10 17 44 38 75 20 32 59 96 86 143 l49 85 114 0 c88 0 113 -3 113 -13z m318
-232 c1 -132 0 -250 -3 -263 -3 -12 -17 -27 -30 -32 -34 -13 -31 -30 5 -30
l31 0 -2 -255 c-1 -192 -4 -257 -14 -265 -15 -12 -115 6 -115 21 0 5 11 15 25
21 26 12 29 17 19 42 -5 12 -10 14 -19 6 -14 -12 -45 -3 -45 12 0 6 8 17 18
24 14 11 12 11 -18 5 -31 -6 -35 -11 -33 -36 1 -16 -3 -33 -10 -37 -9 -6 -9
-12 1 -28 16 -26 15 -30 -3 -30 -8 0 -15 5 -15 10 0 6 -6 10 -14 10 -8 0 -16
10 -19 23 -10 37 -8 655 2 661 4 3 11 19 14 36 5 24 12 30 32 30 30 0 32 10 6
32 -12 10 -28 14 -42 11 -21 -6 -22 -4 -16 43 4 27 14 54 23 60 9 7 14 23 12
40 -3 26 0 29 25 29 25 -1 27 2 27 37 0 21 5 38 10 38 6 0 10 7 10 15 0 13 12
15 68 13 l67 -3 3 -240z m560 146 c2 -67 -1 -97 -9 -102 -15 -9 -472 -11 -494
-3 -11 5 -15 23 -15 74 0 37 3 81 6 98 l6 31 252 -2 251 -2 3 -94z m358 4 c29
-49 66 -111 83 -137 17 -26 31 -55 31 -63 0 -8 9 -23 20 -32 11 -10 20 -23 20
-29 0 -16 -89 -37 -159 -38 -45 -1 -56 2 -59 17 -2 12 3 17 20 17 l23 1 -24
19 c-13 11 -31 20 -40 20 -9 0 -26 15 -38 33 -38 57 -163 270 -163 279 0 5 52
7 116 6 l117 -3 53 -90z m604 -406 c0 -365 -3 -500 -11 -497 -6 2 -22 22 -34
43 -55 96 -96 165 -141 239 l-49 79 -3 159 c-3 138 -1 158 12 158 10 0 16 8
15 23 -1 16 -2 18 -6 5 -2 -10 -8 -18 -12 -18 -14 0 -21 68 -21 193 l0 117
125 0 125 0 0 -501z m-5385 329 c72 -119 77 -133 57 -151 -29 -24 -89 -47
-106 -41 -14 5 -16 27 -16 140 0 74 3 134 8 134 4 0 30 -37 57 -82z m2355 -28
c52 -91 58 -117 30 -130 -52 -26 -69 -32 -86 -28 -17 3 -19 15 -22 137 -3 158
-2 158 78 21z m2206 5 c30 -51 54 -102 52 -112 -4 -21 -92 -68 -113 -59 -12 4
-15 30 -15 141 0 87 4 134 10 130 5 -3 35 -48 66 -100z m-1006 -405 c-1 -390
-4 -491 -14 -499 -8 -7 -55 -10 -122 -9 l-109 3 1 150 c1 83 2 224 2 315 l1
165 76 123 c41 68 75 125 75 127 0 16 73 124 81 119 6 -3 9 -190 9 -494z
m-3132 188 c7 -7 12 -18 12 -26 0 -8 8 -21 19 -30 10 -10 71 -107 136 -217 65
-110 144 -245 177 -300 32 -54 57 -104 54 -111 -3 -7 -41 -12 -109 -12 l-104
-2 -40 63 c-80 124 -353 585 -353 596 0 6 11 8 29 5 16 -4 32 -1 35 5 4 6 19
11 34 11 15 1 38 7 52 15 31 18 43 18 58 3z m2350 -20 c11 -18 43 -71 71 -117
l51 -84 0 -189 c0 -103 -3 -188 -7 -188 -5 0 -38 51 -76 113 -223 371 -267
445 -267 450 0 3 30 8 68 12 37 4 78 13 92 20 37 21 46 18 68 -17z m2202 12
c6 -11 8 -25 5 -30 -3 -6 0 -10 8 -10 17 0 392 -624 383 -638 -3 -5 -52 -10
-109 -10 l-105 -2 -28 43 c-64 96 -364 601 -364 612 0 8 23 15 58 19 31 4 71
13 87 21 42 19 53 18 65 -5z m-7965 -16 c23 -15 25 -23 25 -84 0 -107 14 -100
-194 -100 -223 0 -256 5 -248 33 4 17 1 19 -16 15 -20 -6 -22 -2 -22 38 0 25
5 44 11 44 7 0 8 11 3 32 -6 30 -5 32 11 18 16 -13 19 -13 29 3 10 15 31 17
194 17 151 0 187 -3 207 -16z m2798 4 c26 -13 27 -16 27 -95 0 -45 -3 -84 -8
-86 -6 -5 -345 -9 -415 -5 -22 1 -26 5 -22 19 4 11 2 19 -4 19 -6 0 -11 -4
-11 -10 0 -5 -4 -10 -10 -10 -6 0 -10 27 -10 60 0 38 4 60 11 60 6 0 9 9 6 20
-6 22 8 37 18 20 9 -15 25 -12 25 5 0 13 27 15 183 15 125 0 191 -4 210 -12z
m4560 -2 c14 -11 17 -29 17 -100 l0 -86 -157 -2 c-87 -1 -174 -1 -193 0 -100
5 -100 5 -94 25 5 16 2 18 -15 12 -20 -6 -21 -3 -21 49 0 33 4 56 11 56 5 0 9
8 8 18 -3 30 1 35 17 21 13 -11 17 -10 25 4 9 15 31 17 197 17 140 -1 191 -4
205 -14z m-4217 -43 l29 -27 0 -300 0 -301 -90 -3 c-49 -2 -105 0 -122 3 l-33
6 0 297 c0 219 3 301 12 310 7 7 27 12 45 12 18 0 33 4 33 9 0 6 19 12 43 14
23 2 45 4 48 5 3 1 19 -10 35 -25z m2339 0 l25 -28 0 -297 0 -298 -120 0 -120
0 2 307 3 307 30 8 c28 8 115 24 142 27 7 0 24 -11 38 -26z m2210 1 l29 -26 0
-302 1 -301 -90 -3 c-49 -2 -105 0 -122 3 l-33 6 0 298 c0 319 -1 315 50 324
14 2 32 7 40 10 8 3 29 8 45 10 17 2 35 5 41 6 6 0 24 -11 39 -25z m-7620
-529 l0 -100 -170 0 c-146 0 -173 2 -194 17 -15 12 -32 16 -48 12 -24 -6 -25
-5 -19 24 4 18 3 33 -3 37 -6 3 -11 15 -11 26 0 10 -7 19 -15 19 -18 0 -20
-43 -4 -89 13 -38 2 -56 -29 -47 -27 9 -39 92 -17 116 8 9 15 24 15 33 0 9 4
17 9 17 5 0 11 9 14 20 5 20 11 21 239 18 l233 -3 0 -100z m2610 94 c5 -6 11
-7 18 0 7 5 49 9 95 8 l83 0 -3 -101 -3 -101 -109 -2 c-103 -1 -110 0 -131 23
-27 29 -55 31 -55 5 0 -30 -39 -38 -57 -11 -13 18 -21 21 -50 15 -32 -6 -34
-4 -28 15 7 22 -11 90 -25 90 -16 0 -19 -46 -5 -85 16 -47 6 -63 -29 -47 -28
12 -40 73 -19 100 7 9 13 27 13 38 0 12 7 24 15 28 8 3 15 12 15 20 0 11 25
14 134 15 84 1 137 -3 141 -10z m4742 -93 l-2 -101 -113 -1 c-109 -1 -114 0
-129 22 -20 31 -51 31 -63 -1 -11 -30 -20 -31 -50 -5 -25 22 -45 26 -55 10
-11 -17 -27 1 -21 24 6 23 -13 86 -26 86 -14 0 -20 -48 -9 -68 18 -34 14 -72
-8 -72 -24 0 -37 17 -44 60 -4 23 -1 42 8 54 8 11 15 26 15 33 0 8 7 25 16 39
l17 24 232 -1 233 -2 -1 -101z"/>
</g>
</svg>
